<svg width="119" height="125" viewBox="0 0 119 125" fill="none" xmlns="http://www.w3.org/2000/svg">
<path d="M-0.000389099 87.1134H98.9473V53.583H-0.000389099V87.1134Z" fill="white"/>
<path d="M82.2071 77.1427C78.333 77.1427 75.1925 74.0022 75.1925 70.1281C75.1925 66.2541 78.333 63.1135 82.2071 63.1135C86.0811 63.1135 89.2217 66.2541 89.2217 70.1281C89.2217 74.0022 86.0811 77.1427 82.2071 77.1427Z" fill="#E6E6E6"/>
<path d="M66.0067 65.4517C66.3168 65.4517 66.6141 65.5748 66.8333 65.7941C67.0526 66.0133 67.1758 66.3107 67.1758 66.6208C67.1758 66.9308 67.0526 67.2282 66.8333 67.4474C66.6141 67.6667 66.3168 67.7899 66.0067 67.7899H10.8921C10.5825 67.7891 10.2858 67.6656 10.0672 67.4465C9.84853 67.2273 9.72573 66.9303 9.72573 66.6208C9.72573 66.3112 9.84853 66.0142 10.0672 65.7951C10.2858 65.5759 10.5825 65.4524 10.8921 65.4517H66.0067Z" fill="#E6E6E6"/>
<path d="M66.0069 72.4663C66.1605 72.4658 66.3127 72.4956 66.4548 72.554C66.5969 72.6124 66.7261 72.6982 66.8351 72.8065C66.944 72.9149 67.0305 73.0436 67.0896 73.1854C67.1487 73.3272 67.1794 73.4793 67.1797 73.6329C67.18 73.7866 67.1501 73.9388 67.0915 74.0808C67.033 74.2229 66.947 74.352 66.8386 74.4608C66.7301 74.5696 66.6012 74.656 66.4594 74.7149C66.3175 74.7739 66.1654 74.8044 66.0118 74.8045H42.2909C41.9808 74.8045 41.6834 74.6813 41.4642 74.4621C41.2449 74.2428 41.1218 73.9455 41.1218 73.6354C41.1218 73.3253 41.2449 73.028 41.4642 72.8087C41.6834 72.5895 41.9808 72.4663 42.2909 72.4663H66.0069Z" fill="#E6E6E6"/>
<path d="M-0.000389099 87.1134H98.9473V53.583H-0.000389099V87.1134ZM96.9749 85.1411H1.97199V55.5554H96.9749V85.1411Z" fill="#C4C4C4"/>
<path d="M21.0384 0.986084H118.014V47.9944H21.0384V0.986084Z" fill="white"/>
<path d="M102.259 23.5597C98.3853 23.5597 95.2447 20.4192 95.2447 16.5451C95.2447 12.6711 98.3853 9.53052 102.259 9.53052C106.133 9.53052 109.274 12.6711 109.274 16.5451C109.274 20.4192 106.133 23.5597 102.259 23.5597Z" fill="#E6E6E6"/>
<path d="M86.0589 11.8687C86.369 11.8687 86.6663 11.9918 86.8856 12.2111C87.1048 12.4303 87.228 12.7277 87.228 13.0378C87.228 13.3478 87.1048 13.6452 86.8856 13.8644C86.6663 14.0837 86.369 14.2068 86.0589 14.2068H30.9443C30.6347 14.2061 30.3381 14.0826 30.1194 13.8635C29.9008 13.6443 29.778 13.3473 29.778 13.0378C29.778 12.7282 29.9008 12.4312 30.1194 12.2121C30.3381 11.9929 30.6347 11.8694 30.9443 11.8687H86.0589Z" fill="#E6E6E6"/>
<path d="M86.0591 18.8833C86.2127 18.8828 86.365 18.9126 86.5071 18.971C86.6492 19.0294 86.7784 19.1152 86.8873 19.2235C86.9962 19.3319 87.0827 19.4606 87.1419 19.6024C87.201 19.7442 87.2316 19.8963 87.2319 20.0499C87.2323 20.2036 87.2023 20.3558 87.1438 20.4978C87.0852 20.6399 86.9993 20.769 86.8908 20.8778C86.7823 20.9866 86.6535 21.0729 86.5116 21.1319C86.3698 21.1909 86.2177 21.2213 86.064 21.2215H62.3431C62.033 21.2215 61.7357 21.0983 61.5164 20.8791C61.2972 20.6598 61.174 20.3625 61.174 20.0524C61.174 19.7423 61.2972 19.445 61.5164 19.2257C61.7357 19.0065 62.033 18.8833 62.3431 18.8833H86.0591Z" fill="#E6E6E6"/>
<path d="M107.639 30.0977C108.529 30.0977 109.252 30.6222 109.252 31.2668C109.252 31.9113 108.529 32.4358 107.639 32.4358H31.5982C30.7089 32.4358 29.9852 31.9113 29.9852 31.2668C29.9852 30.6222 30.7089 30.0977 31.5982 30.0977H107.639Z" fill="#E6E6E6"/>
<path d="M107.639 37.1121C108.529 37.1121 109.252 37.6366 109.252 38.2812C109.252 38.9257 108.529 39.4502 107.639 39.4502H31.5982C30.7089 39.4502 29.9852 38.9257 29.9852 38.2812C29.9852 37.6366 30.7089 37.1121 31.5982 37.1121H107.639Z" fill="#E6E6E6"/>
<path d="M20.0523 48.9807H119V0H20.0523V48.9807ZM117.028 47.0084H22.0247V1.97238H117.028V47.0084Z" fill="#C4C4C4"/>
<path d="M10.1899 10.8481H105.521V75.1634H10.1899V10.8481Z" fill="white"/>
<path d="M9.8615 75.492H105.851V10.5193H9.8615V75.492ZM105.193 74.8346H10.519V11.1767H105.193V74.8346Z" fill="#3F3D56"/>
<path d="M97.4658 61.0649H18.2466V15.9502H97.4658V61.0649Z" fill="#C4C4C4"/>
<path d="M74.1608 44.0003C69.7757 44.0003 66.2209 40.4455 66.2209 36.0604C66.2209 31.6754 69.7757 28.1206 74.1608 28.1206C78.5458 28.1206 82.1006 31.6754 82.1006 36.0604C82.1006 40.4455 78.5458 44.0003 74.1608 44.0003Z" fill="#794DFF"/>
<path d="M49.2629 60.528H88.2133C88.2621 60.5287 88.3108 60.5248 88.3589 60.5165L69.9371 28.6073C69.8247 28.4086 69.6615 28.2433 69.4643 28.1283C69.2671 28.0133 69.0428 27.9526 68.8145 27.9526C68.5862 27.9526 68.3619 28.0133 68.1647 28.1283C67.9675 28.2433 67.8043 28.4086 67.6919 28.6073L55.3286 50.0209L54.7363 51.0455L49.2629 60.528Z" fill="#3F3D56"/>
<path opacity="0.2" d="M49.2623 60.5279H62.561L56.0328 51.0454L55.5627 50.3623L55.3277 50.0208L54.7356 51.0454L49.2623 60.5279Z" fill="#3F3D56"/>
<path d="M27.5752 60.5278H61.2642L54.7359 51.0453L54.2661 50.3622L45.7592 38.0046C45.6088 37.8159 45.4204 37.6608 45.2061 37.5496C44.9919 37.4384 44.7567 37.3734 44.5157 37.359C44.2748 37.3446 44.0335 37.3811 43.8075 37.466C43.5816 37.5509 43.376 37.6824 43.2041 37.8519C43.1601 37.9001 43.1192 37.9512 43.0816 38.0046L27.5752 60.5278Z" fill="#3F3D56"/>
<path d="M93.4383 121.329L90.0469 121.329L88.4333 108.247L93.439 108.247L93.4383 121.329Z" fill="#FFB8B8"/>
<path d="M83.5059 124.478L94.1651 124.478L94.1653 120.36L86.6253 120.36C85.798 120.36 85.0046 120.688 84.4196 121.273C83.8346 121.858 83.5059 122.651 83.5059 123.479L83.5059 124.478Z" fill="#3F3D56"/>
<path d="M106.994 121.329L103.603 121.329L101.989 108.247L106.995 108.247L106.994 121.329Z" fill="#FFB8B8"/>
<path d="M97.0615 124.478L107.721 124.479L107.721 120.36L100.181 120.36C99.3537 120.36 98.5603 120.688 97.9753 121.273C97.3903 121.858 97.0616 122.652 97.0616 123.479L97.0615 124.478Z" fill="#3F3D56"/>
<path d="M87.5298 83.6166C87.8064 83.3572 88.0228 83.0403 88.1637 82.6882C88.3045 82.3361 88.3665 81.9574 88.3452 81.5787C88.3239 81.2001 88.2198 80.8307 88.0403 80.4967C87.8608 80.1626 87.6102 79.872 87.3062 79.6452L88.7593 73.8981L85.4822 72.1633L83.5442 80.3081C83.1971 80.844 83.0587 81.4887 83.1551 82.1198C83.2516 82.751 83.5762 83.3249 84.0675 83.7327C84.5587 84.1405 85.1825 84.3539 85.8207 84.3325C86.4588 84.3112 87.0669 84.0564 87.5298 83.6166Z" fill="#FFB8B8"/>
<path d="M108.2 73.5789L107.924 92.944L107.647 118.395L101.561 117.842L98.5177 82.7082L94.6447 117.842H88.3615L87.7287 82.4314L89.9418 74.6854L108.2 73.5789Z" fill="#3F3D56"/>
<path d="M96.2876 76.1792C102.91 76.1797 109.005 73.1825 109.088 73.1414L109.156 73.1072L109.712 59.7707C109.873 59.2994 113.046 50 113.583 47.0442C114.128 44.0495 106.236 41.4213 105.278 41.114L105.061 38.7049L96.2169 37.752L95.0961 40.8345L91.9234 42.0241C91.5637 42.1591 91.266 42.4213 91.0868 42.7611C90.9075 43.1009 90.8591 43.4946 90.9507 43.8677L92.7141 51.0386L89.2456 74.7633L89.3346 74.8034C91.557 75.8072 93.9557 76.1791 96.2876 76.1792Z" fill="#794DFF"/>
<path d="M88.3819 77.6678L91.4509 65.0334L94.7773 49.7872L93.0888 42.1885H91.6452C91.6188 42.1885 88.9954 42.2277 88.4306 45.6164C87.8836 48.8987 86.2339 59.3446 86.2173 59.4497L83.4292 77.2938L88.3819 77.6678Z" fill="#794DFF"/>
<path d="M101.514 75.5328C101.532 75.154 101.633 74.7837 101.809 74.4481C101.986 74.1124 102.234 73.8196 102.536 73.5901C102.838 73.3607 103.186 73.2002 103.557 73.1201C103.928 73.0399 104.312 73.042 104.681 73.1262L108.112 68.2917L111.558 69.6599L106.618 76.419C106.435 77.0309 106.034 77.5544 105.492 77.8906C104.949 78.2267 104.301 78.352 103.672 78.2428C103.043 78.1335 102.476 77.7973 102.078 77.2978C101.681 76.7984 101.48 76.1704 101.514 75.5328Z" fill="#FFB8B8"/>
<path d="M108.2 75.1744L118.58 61.7084L114.691 49.485C114.406 46.4118 112.483 45.5537 112.401 45.5186L112.276 45.4651L108.892 54.4904L111.377 61.117L105.277 71.375L108.2 75.1744Z" fill="#794DFF"/>
<path d="M97.2386 35.4462C94.1529 33.7594 93.0189 29.8906 94.7056 26.8049C96.3924 23.7192 100.261 22.5852 103.347 24.272C106.433 25.9588 107.567 29.8276 105.88 32.9133C104.193 35.999 100.324 37.133 97.2386 35.4462Z" fill="#FFB8B8"/>
<path d="M96.0176 26.7576C96.6768 27.5376 97.7922 27.7577 98.8212 27.848C100.911 28.0313 103.95 27.734 105.992 27.2625C106.138 28.6752 105.74 30.1985 106.573 31.3606C106.963 29.9537 107.189 28.5065 107.248 27.0477C107.274 26.4221 107.264 25.7748 107.01 25.2005C106.755 24.6262 106.201 24.1386 105.562 24.1335C106.037 23.7736 106.592 23.5361 107.18 23.4418L105.158 22.4258L105.678 21.8928L102.017 21.6688L103.078 20.9952C101.482 20.776 99.8676 20.725 98.2613 20.8432C97.5154 20.8982 96.7355 21.0032 96.1312 21.4353C95.5268 21.8675 95.1776 22.7265 95.5528 23.361C95.0831 23.4381 94.6408 23.6339 94.2679 23.9298C93.895 24.2256 93.6039 24.6118 93.422 25.0517C93.1525 25.7348 93.1772 26.4935 93.2602 27.2213C93.3981 28.3855 93.6687 29.53 94.0666 30.6327" fill="#3F3D56"/>
</svg>
