<svg width="112" height="110" viewBox="0 0 112 110" fill="none" xmlns="http://www.w3.org/2000/svg">
<path d="M111.107 79.2397H34.2932C34.0565 79.2394 33.8296 79.1451 33.6622 78.9775C33.4949 78.8098 33.4007 78.5825 33.4004 78.3455V6.89426C33.4007 6.65718 33.4949 6.4299 33.6622 6.26226C33.8296 6.09463 34.0565 6.00031 34.2932 6H111.107C111.344 6.00031 111.571 6.09463 111.738 6.26226C111.906 6.4299 112 6.65718 112 6.89426V78.3453C112 78.5824 111.906 78.8097 111.738 78.9773C111.571 79.145 111.344 79.2394 111.107 79.2397Z" fill="white"/>
<path d="M111.107 79.2397H34.2932C34.0565 79.2394 33.8296 79.1451 33.6622 78.9775C33.4949 78.8098 33.4007 78.5825 33.4004 78.3455V6.89426C33.4007 6.65718 33.4949 6.4299 33.6622 6.26226C33.8296 6.09463 34.0565 6.00031 34.2932 6H111.107C111.344 6.00031 111.571 6.09463 111.738 6.26226C111.906 6.4299 112 6.65718 112 6.89426V78.3453C112 78.5824 111.906 78.8097 111.738 78.9773C111.571 79.145 111.344 79.2394 111.107 79.2397ZM34.2932 6.357C34.1513 6.35731 34.0154 6.41389 33.9151 6.51436C33.8148 6.61482 33.7583 6.751 33.758 6.89308V78.3453C33.7583 78.4874 33.8148 78.6236 33.9151 78.724C34.0154 78.8245 34.1513 78.8811 34.2932 78.8814H111.107C111.249 78.8811 111.385 78.8245 111.485 78.7241C111.586 78.6236 111.642 78.4874 111.642 78.3453V6.89426C111.642 6.75217 111.586 6.616 111.485 6.51553C111.385 6.41506 111.249 6.35848 111.107 6.35817L34.2932 6.357Z" fill="#C4C4C4"/>
<path d="M70.589 24.5669C70.4284 24.5672 70.2745 24.6313 70.161 24.7451C70.0476 24.8589 69.9839 25.0132 69.9839 25.174C69.9839 25.3348 70.0476 25.4891 70.161 25.6029C70.2745 25.7168 70.4284 25.7808 70.589 25.7811H103.848C104.009 25.7808 104.163 25.7168 104.276 25.6029C104.39 25.4891 104.453 25.3348 104.453 25.174C104.453 25.0132 104.39 24.8589 104.276 24.7451C104.163 24.6313 104.009 24.5672 103.848 24.5669H70.589Z" fill="white"/>
<path d="M70.589 28.21C70.4285 28.2104 70.2747 28.2745 70.1614 28.3883C70.048 28.5021 69.9844 28.6563 69.9844 28.8171C69.9844 28.9778 70.048 29.132 70.1614 29.2459C70.2747 29.3597 70.4285 29.4238 70.589 29.4242H87.5686C87.7291 29.4238 87.8829 29.3597 87.9963 29.2459C88.1096 29.132 88.1733 28.9778 88.1733 28.8171C88.1733 28.6563 88.1096 28.5021 87.9963 28.3883C87.8829 28.2745 87.7291 28.2104 87.5686 28.21H70.589Z" fill="white"/>
<path d="M41.5192 47.8008C41.3587 47.8012 41.2049 47.8653 41.0916 47.9791C40.9782 48.0929 40.9146 48.2471 40.9146 48.4079C40.9146 48.5687 40.9782 48.7229 41.0916 48.8367C41.2049 48.9505 41.3587 49.0146 41.5192 49.015H103.881C104.041 49.0146 104.195 48.9505 104.308 48.8367C104.422 48.7229 104.485 48.5687 104.485 48.4079C104.485 48.2471 104.422 48.0929 104.308 47.9791C104.195 47.8653 104.041 47.8012 103.881 47.8008H41.5192Z" fill="white"/>
<path d="M41.5192 51.4438C41.3587 51.4442 41.2049 51.5084 41.0916 51.6222C40.9782 51.736 40.9146 51.8902 40.9146 52.051C40.9146 52.2117 40.9782 52.3659 41.0916 52.4797C41.2049 52.5935 41.3587 52.6577 41.5192 52.6581H87.6009C87.7614 52.6577 87.9152 52.5935 88.0286 52.4797C88.1419 52.3659 88.2056 52.2117 88.2056 52.051C88.2056 51.8902 88.1419 51.736 88.0286 51.6222C87.9152 51.5084 87.7614 51.4442 87.6009 51.4438H41.5192Z" fill="white"/>
<path d="M41.5192 55.0044C41.3587 55.0048 41.2049 55.0689 41.0916 55.1827C40.9782 55.2965 40.9146 55.4507 40.9146 55.6115C40.9146 55.7723 40.9782 55.9265 41.0916 56.0403C41.2049 56.1541 41.3587 56.2182 41.5192 56.2186H103.881C104.041 56.2182 104.195 56.1541 104.308 56.0403C104.422 55.9265 104.485 55.7723 104.485 55.6115C104.485 55.4507 104.422 55.2965 104.308 55.1827C104.195 55.0689 104.041 55.0048 103.881 55.0044H41.5192Z" fill="white"/>
<path d="M41.5192 58.6475C41.3587 58.6479 41.2049 58.712 41.0916 58.8258C40.9782 58.9396 40.9146 59.0938 40.9146 59.2546C40.9146 59.4153 40.9782 59.5695 41.0916 59.6833C41.2049 59.7972 41.3587 59.8613 41.5192 59.8617H87.6009C87.7614 59.8613 87.9152 59.7972 88.0286 59.6833C88.1419 59.5695 88.2056 59.4153 88.2056 59.2546C88.2056 59.0938 88.1419 58.9396 88.0286 58.8258C87.9152 58.712 87.7614 58.6479 87.6009 58.6475H41.5192Z" fill="white"/>
<path d="M41.5192 62.3027C41.3587 62.3031 41.2049 62.3673 41.0916 62.4811C40.9782 62.5949 40.9146 62.7491 40.9146 62.9098C40.9146 63.0706 40.9782 63.2248 41.0916 63.3386C41.2049 63.4524 41.3587 63.5166 41.5192 63.517H103.881C104.041 63.5166 104.195 63.4524 104.308 63.3386C104.422 63.2248 104.485 63.0706 104.485 62.9098C104.485 62.7491 104.422 62.5949 104.308 62.4811C104.195 62.3673 104.041 62.3031 103.881 62.3027H41.5192Z" fill="white"/>
<path d="M41.5192 65.9458C41.3587 65.9462 41.2049 66.0103 41.0916 66.1241C40.9782 66.238 40.9146 66.3922 40.9146 66.5529C40.9146 66.7137 40.9782 66.8679 41.0916 66.9817C41.2049 67.0955 41.3587 67.1596 41.5192 67.16H87.6009C87.7614 67.1596 87.9152 67.0955 88.0286 66.9817C88.1419 66.8679 88.2056 66.7137 88.2056 66.5529C88.2056 66.3922 88.1419 66.238 88.0286 66.1241C87.9152 66.0103 87.7614 65.9462 87.6009 65.9458H41.5192Z" fill="white"/>
<path d="M72.0002 63C67.649 63 63.3955 61.6805 59.7776 59.2082C56.1597 56.7359 53.3399 53.2219 51.6747 49.1105C50.0096 44.9992 49.5739 40.4752 50.4227 36.1106C51.2716 31.746 53.3668 27.7369 56.4436 24.5902C59.5203 21.4435 63.4404 19.3005 67.708 18.4324C71.9755 17.5642 76.399 18.0097 80.419 19.7127C84.439 21.4157 87.8749 24.2995 90.2923 27.9997C92.7097 31.6998 94 36.0499 94 40.5C93.9934 46.4653 91.6734 52.1843 87.5491 56.4023C83.4248 60.6204 77.8329 62.9932 72.0002 63Z" fill="#794DFF"/>
<path d="M24.9624 68.6986C24.9473 68.3802 24.8628 68.069 24.7146 67.7869C24.5665 67.5048 24.3584 67.2587 24.1051 67.0658C23.8517 66.873 23.5592 66.7381 23.2482 66.6708C22.9372 66.6034 22.6152 66.6052 22.3049 66.6759L19.4265 62.6128L16.5347 63.7626L20.6801 69.4434C20.8333 69.9576 21.1695 70.3977 21.625 70.6802C22.0805 70.9626 22.6237 71.068 23.1515 70.9761C23.6794 70.8843 24.1553 70.6018 24.489 70.182C24.8228 69.7622 24.9912 69.2344 24.9624 68.6986Z" fill="#A0616A"/>
<path d="M10.947 57.7533L0 43.5286L4.10175 30.6165C4.40233 27.3702 6.43042 26.4637 6.51672 26.4267L6.64835 26.3701L10.2176 35.904L7.59694 42.9039L14.0294 53.7399L10.947 57.7533Z" fill="#3F3D56"/>
<path d="M48.9644 13.9036C48.5676 13.9534 48.1865 14.0898 47.848 14.3031C47.5094 14.5165 47.2217 14.8015 47.0051 15.1383C46.7884 15.475 46.6482 15.8553 46.5941 16.2522C46.5401 16.6491 46.5736 17.0531 46.6922 17.4356L41.8887 21.4434L43.6082 24.9612L50.3124 19.2061C50.9408 18.9638 51.4587 18.499 51.7678 17.8999C52.077 17.3007 52.156 16.6087 51.9898 15.9551C51.8237 15.3015 51.4239 14.7317 50.8663 14.3536C50.3087 13.9754 49.632 13.8153 48.9644 13.9036Z" fill="#A0616A"/>
<path d="M49.1326 20.9741L35.8199 33.0059L22.6502 29.9081C19.3957 29.859 18.3366 27.9037 18.293 27.8204L18.2266 27.6933L27.4405 23.3918L34.6107 25.4677L44.8993 18.2063L49.1326 20.9741Z" fill="#3F3D56"/>
<path d="M26.0729 106.508L29.6498 106.508L31.3512 92.6892L26.0723 92.6894L26.0729 106.508Z" fill="#A0616A"/>
<path d="M36.5479 109.834L25.3064 109.835L25.3062 105.485L33.3938 105.484C34.2303 105.484 35.0325 105.817 35.624 106.409C36.2154 107.002 36.5478 107.805 36.5478 108.643L36.5479 109.834Z" fill="#3F3D56"/>
<path d="M11.7768 106.508L15.3537 106.508L17.0553 92.6892L11.7764 92.6894L11.7768 106.508Z" fill="#A0616A"/>
<path d="M22.2524 109.834L11.0109 109.835L11.0107 105.485L19.0984 105.484C19.5126 105.484 19.9227 105.566 20.3053 105.725C20.688 105.883 21.0357 106.116 21.3286 106.409C21.6214 106.703 21.8538 107.051 22.0123 107.434C22.1708 107.817 22.2524 108.228 22.2524 108.643L22.2524 109.834Z" fill="#3F3D56"/>
<path d="M10.5049 56.0676L10.7966 76.5237L11.0886 103.409L17.507 102.824L20.7164 65.7114L24.801 102.824H31.4273L32.0948 65.4192L29.7608 57.2367L10.5049 56.0676Z" fill="#3F3D56"/>
<path d="M23.0673 58.8149C16.0835 58.8154 9.65491 55.6494 9.56813 55.6059L9.49604 55.5698L8.90997 41.4819C8.74002 40.9841 5.39349 31.1607 4.82671 28.0384C4.25245 24.875 12.5752 22.0988 13.5858 21.7741L13.8152 19.2293L23.1418 18.2227L24.3239 21.4788L27.6699 22.7355C28.0493 22.8781 28.3632 23.1551 28.5523 23.514C28.7413 23.873 28.7923 24.2889 28.6957 24.683L26.836 32.2579L31.3779 57.3192L30.4001 57.3616C28.0563 58.4219 25.5266 58.8147 23.0673 58.8149Z" fill="#3F3D56"/>
<path d="M22.0648 15.7867C25.319 14.0049 26.515 9.91807 24.7361 6.65856C22.9571 3.39904 18.877 2.20113 15.6227 3.98296C12.3685 5.76478 11.1726 9.85159 12.9515 13.1111C14.7304 16.3706 18.8106 17.5685 22.0648 15.7867Z" fill="#A0616A"/>
<path d="M13.405 16.3962C14.6847 17.7616 17.0614 17.0286 17.2282 15.1632C17.2412 15.0184 17.2403 14.8726 17.2253 14.728C17.1392 13.9017 16.6627 13.1515 16.7768 12.2791C16.8026 12.062 16.8834 11.855 17.0114 11.6779C18.0312 10.3101 20.4252 12.2897 21.3876 11.0515C21.9778 10.2922 21.2841 9.09676 21.7369 8.24814C22.3347 7.12811 24.1051 7.68062 25.2154 7.06723C26.4506 6.38476 26.3768 4.48639 25.5636 3.3317C24.5719 1.9235 22.8332 1.1721 21.1162 1.06381C19.3991 0.955514 17.6939 1.42043 16.0908 2.04617C14.2695 2.75713 12.4633 3.73968 11.3425 5.34382C9.97942 7.29462 9.84825 9.9173 10.5299 12.1984C10.9446 13.586 12.3599 15.2811 13.405 16.3962Z" fill="#3F3D56"/>
<path d="M70.5898 49C70.2036 49.0005 69.8316 48.8446 69.549 48.5639L62.4875 41.5686C62.1907 41.274 62.0158 40.8658 62.001 40.4337C61.9863 40.0016 62.133 39.5809 62.4089 39.2641C62.6848 38.9472 63.0673 38.7602 63.4724 38.744C63.8776 38.7279 64.2721 38.8839 64.5695 39.1778L70.5507 45.1032L82.3846 32.4822C82.5264 32.3298 82.6951 32.2087 82.881 32.126C83.0668 32.0432 83.2661 32.0004 83.4675 32C83.6689 31.9996 83.8683 32.0416 84.0545 32.1236C84.2406 32.2057 84.4097 32.3261 84.5521 32.478C84.6944 32.6298 84.8073 32.8102 84.8842 33.0087C84.961 33.2073 85.0004 33.42 85 33.6348C84.9996 33.8496 84.9594 34.0621 84.8818 34.2603C84.8041 34.4585 84.6906 34.6384 84.5476 34.7897L71.6717 48.5223C71.5298 48.6739 71.3611 48.7942 71.1754 48.8762C70.9898 48.9582 70.7907 49.0002 70.5898 49Z" fill="white"/>
</svg>
