<svg width="93" height="136" viewBox="0 0 93 136" fill="none" xmlns="http://www.w3.org/2000/svg">
<path d="M70.7297 60.8682C70.7297 69.7284 67.637 77.2931 61.7518 82.9224C57.5756 86.9192 51.1429 92.521 51.1429 98.4439V103.344H31.556V98.4439C31.556 92.4591 25.0981 86.8458 20.9471 82.9224C15.1948 77.4903 11.9692 69.412 11.9692 60.8682V60.687C11.9945 52.8884 15.1135 45.4191 20.6402 39.9221C26.1669 34.425 33.6486 31.3504 41.4399 31.3744C49.2312 31.3984 56.6939 34.5191 62.1867 40.0501C67.6794 45.5812 70.7524 53.0695 70.7297 60.8682Z" fill="#794DFF"/>
<path d="M51.1428 104.032C50.9605 104.032 50.7857 103.96 50.6568 103.831C50.5279 103.702 50.4555 103.527 50.4555 103.344V98.4432C50.4555 92.6819 56.132 87.3037 60.2771 83.3766C60.6207 83.0506 60.9554 82.7346 61.2766 82.4262C67.0104 76.9394 70.0412 69.4851 70.0412 60.8686C70.0412 44.7649 57.4385 32.1501 41.35 32.1501H41.2689C33.6976 32.1586 26.4375 35.1674 21.0762 40.5187C15.7149 45.87 12.6885 53.1284 12.6587 60.7069V60.8674C12.6587 69.3057 15.8519 77.1623 21.4201 82.4234C21.7021 82.6901 21.9951 82.9646 22.2959 83.2464C26.4943 87.181 32.2444 92.5694 32.2444 98.4434V103.344C32.2444 103.527 32.1719 103.702 32.0431 103.831C31.9142 103.96 31.7394 104.032 31.5571 104.032C31.3748 104.032 31.2 103.96 31.0711 103.831C30.9422 103.702 30.8698 103.527 30.8698 103.344V98.4432C30.8698 93.1658 25.3718 88.0131 21.3564 84.2494C21.0542 83.9664 20.7609 83.6909 20.4765 83.4227C14.6348 77.903 11.2842 69.682 11.2842 60.8677V60.7026C11.33 44.1825 24.7739 30.7734 41.2669 30.7734H41.3519C49.2841 30.7321 56.9077 33.8465 62.5458 39.4315C68.1839 45.0165 71.3745 52.6146 71.4157 60.5543C71.4162 60.659 71.4162 60.7638 71.4157 60.8686C71.4157 69.8698 68.238 77.6682 62.2266 83.4207C61.9038 83.7295 61.5678 84.048 61.2218 84.3757C57.2587 88.131 51.8293 93.274 51.8293 98.4432V103.344C51.8293 103.527 51.7569 103.702 51.628 103.831C51.4992 103.96 51.3244 104.032 51.1421 104.032H51.1428Z" fill="#3F3D56"/>
<path d="M47.8791 112.859H34.8212C34.5174 112.859 34.2261 112.738 34.0113 112.523C33.7965 112.308 33.6758 112.017 33.6758 111.713C33.6758 111.409 33.7965 111.117 34.0113 110.902C34.2261 110.687 34.5174 110.566 34.8212 110.566H47.8791C48.1829 110.566 48.4742 110.687 48.689 110.902C48.9038 111.117 49.0245 111.409 49.0245 111.713C49.0245 112.017 48.9038 112.308 48.689 112.523C48.4742 112.738 48.1829 112.859 47.8791 112.859Z" fill="#794DFF"/>
<path d="M42.7542 120.541H39.944C38.9679 120.541 38.01 120.276 37.1734 119.772C37.0494 119.7 36.9533 119.588 36.9006 119.454C36.8479 119.321 36.8417 119.173 36.8829 119.035C36.9206 118.894 37.004 118.769 37.1201 118.68C37.2362 118.591 37.3785 118.544 37.5247 118.544H45.1736C45.3198 118.544 45.462 118.591 45.5782 118.68C45.6943 118.769 45.7777 118.894 45.8154 119.035C45.8566 119.173 45.8504 119.321 45.7977 119.454C45.745 119.588 45.6489 119.7 45.5248 119.772C44.6882 120.276 43.7303 120.541 42.7542 120.541Z" fill="#3F3D56"/>
<path d="M47.8811 116.481L34.7458 116.479L34.7051 116.392C34.6663 116.231 34.6648 116.064 34.7005 115.903C34.7362 115.742 34.8083 115.591 34.9112 115.461C35.0156 115.329 35.1487 115.222 35.3004 115.149C35.4521 115.075 35.6185 115.037 35.787 115.038H46.9109C47.0794 115.037 47.2458 115.075 47.3976 115.149C47.5493 115.222 47.6824 115.329 47.7867 115.462C47.8888 115.589 47.9606 115.738 47.9968 115.897C48.0329 116.056 48.0324 116.222 47.9954 116.38L47.9748 116.469L47.8811 116.481Z" fill="#3F3D56"/>
<path d="M10.973 33.8432C10.6961 33.8435 10.4285 33.743 10.2202 33.5604L0.383514 24.966C0.158174 24.765 0.0211592 24.4832 0.00225198 24.1817C-0.0166553 23.8802 0.0840742 23.5835 0.282541 23.3559C0.481007 23.1283 0.761174 22.9884 1.06216 22.9664C1.36315 22.9445 1.66064 23.0423 1.88998 23.2386L11.7267 31.8331C11.9024 31.9866 12.0271 32.1901 12.0841 32.4165C12.1412 32.6428 12.1278 32.8812 12.0459 33.0997C11.964 33.3183 11.8173 33.5066 11.6256 33.6395C11.4339 33.7723 11.2062 33.8435 10.973 33.8434V33.8432Z" fill="#794DFF"/>
<path d="M70.0947 33.8431C69.8614 33.8432 69.6338 33.7721 69.442 33.6392C69.2503 33.5063 69.1037 33.318 69.0218 33.0994C68.9398 32.8809 68.9265 32.6425 68.9835 32.4162C69.0406 32.1898 69.1653 31.9863 69.341 31.8328L79.1774 23.2377C79.4068 23.0413 79.7042 22.9435 80.0052 22.9654C80.3062 22.9874 80.5864 23.1274 80.7849 23.3549C80.9833 23.5825 81.0841 23.8793 81.0651 24.1807C81.0462 24.4822 80.9092 24.7641 80.6839 24.965L70.8472 33.5595C70.639 33.7423 70.3716 33.8431 70.0947 33.8431Z" fill="#794DFF"/>
<path d="M51.1424 108.79H31.5556C31.2518 108.79 30.9604 108.669 30.7456 108.454C30.5308 108.239 30.4102 107.948 30.4102 107.644C30.4102 107.34 30.5308 107.048 30.7456 106.833C30.9604 106.618 31.2518 106.497 31.5556 106.497H51.1424C51.4462 106.497 51.7375 106.618 51.9523 106.833C52.1671 107.048 52.2878 107.34 52.2878 107.644C52.2878 107.948 52.1671 108.239 51.9523 108.454C51.7375 108.669 51.4462 108.79 51.1424 108.79Z" fill="#794DFF"/>
<path d="M40.8686 78.8388L36.7954 103.344H34.4702L38.6075 78.4628C38.6573 78.1626 38.8242 77.8946 39.0715 77.7177C39.3187 77.5407 39.6261 77.4693 39.9259 77.5192C40.2257 77.5691 40.4935 77.7361 40.6703 77.9836C40.8471 78.2311 40.9184 78.5387 40.8686 78.8388Z" fill="#794DFF"/>
<path d="M48.6961 103.344H46.3709L42.2977 78.8388C42.2479 78.5387 42.3192 78.2311 42.496 77.9836C42.6728 77.7361 42.9406 77.5691 43.2404 77.5192C43.5403 77.4693 43.8476 77.5407 44.0949 77.7177C44.3421 77.8946 44.509 78.1626 44.5588 78.4628L48.6961 103.344Z" fill="#794DFF"/>
<path d="M33.9053 78.02C33.9053 77.716 34.0259 77.4244 34.2408 77.2093C34.4556 76.9943 34.7469 76.8735 35.0507 76.8735H47.6488C47.9526 76.8735 48.2439 76.9943 48.4587 77.2093C48.6735 77.4244 48.7942 77.716 48.7942 78.02C48.7942 78.3241 48.6735 78.6157 48.4587 78.8307C48.2439 79.0458 47.9526 79.1666 47.6488 79.1666H35.0507C34.7469 79.1666 34.4556 79.0458 34.2408 78.8307C34.0259 78.6157 33.9053 78.3241 33.9053 78.02Z" fill="#794DFF"/>
<path d="M41.3495 22.3984C41.0457 22.3984 40.7544 22.2776 40.5396 22.0625C40.3248 21.8475 40.2041 21.5559 40.2041 21.2518V1.64651C40.2041 1.34244 40.3248 1.05082 40.5396 0.835805C40.7544 0.620793 41.0457 0.5 41.3495 0.5C41.6533 0.5 41.9447 0.620793 42.1595 0.835805C42.3743 1.05082 42.495 1.34244 42.495 1.64651V21.2518C42.495 21.5559 42.3743 21.8475 42.1595 22.0625C41.9447 22.2776 41.6533 22.3984 41.3495 22.3984Z" fill="#794DFF"/>
<path d="M84.0553 132.775H81.2472L79.9111 121.932H84.0557L84.0553 132.775Z" fill="#FFB8B8"/>
<path d="M84.7713 135.5H75.7153V135.385C75.7154 134.45 76.0867 133.552 76.7477 132.891C77.4086 132.229 78.3051 131.857 79.2398 131.857H84.7713L84.7713 135.5Z" fill="#3F3D56"/>
<path d="M62.7192 132.682L60.0059 131.956L61.5132 121.135L65.5177 122.207L62.7192 132.682Z" fill="#FFB8B8"/>
<path d="M62.7075 135.5L53.959 133.158L53.9885 133.048C54.23 132.144 54.8204 131.373 55.6298 130.905C56.4391 130.436 57.4012 130.309 58.3043 130.551L63.6477 131.981L62.7075 135.5Z" fill="#3F3D56"/>
<path d="M85.6706 72.0071L88.0231 74.7429L84.9808 130.335H78.4819L75.2059 87.5588L65.0462 131.483L58.29 129.824L64.4332 74.0348L85.6706 72.0071Z" fill="#3F3D56"/>
<path d="M66.0038 36.1156L72.4745 32.866L82.4253 33.0412L90.9885 37.427L86.1163 61.783L88.2209 74.4818C80.0866 76.5582 71.5704 76.6283 63.403 74.6863L63.3379 74.6707C63.3379 74.6707 68.1748 57.4923 66.1158 52.2498L66.0038 36.1156Z" fill="#E6E6E6"/>
<path d="M84.7241 23.1353C84.7169 21.1919 83.9397 19.3309 82.563 17.9605C81.1863 16.5902 79.3227 15.8226 77.3812 15.8262C75.4397 15.8298 73.5789 16.6043 72.2073 17.9797C70.8358 19.3552 70.0654 21.2191 70.0654 23.1625C70.0654 25.1058 70.8358 26.9698 72.2073 28.3452C73.5789 29.7206 75.4397 30.4951 77.3812 30.4987C79.3227 30.5023 81.1863 29.7347 82.563 28.3644C83.9397 26.9941 84.7169 25.133 84.7241 23.1896V23.1353Z" fill="#FFB8B8"/>
<path d="M65.1111 53.873C65.2503 54.2311 65.4663 54.5542 65.7438 54.8196C66.0214 55.0851 66.3536 55.2864 66.7173 55.4094C67.0809 55.5325 67.4671 55.5742 67.8486 55.5316C68.2301 55.4891 68.5977 55.3634 68.9254 55.1633L82.0641 62.1153L82.4895 58.9117L69.7226 51.3761C69.3502 50.8474 68.7971 50.4738 68.1679 50.326C67.5387 50.1782 66.8772 50.2666 66.3088 50.5743C65.7403 50.8821 65.3044 51.3879 65.0836 51.9958C64.8629 52.6038 64.8725 53.2717 65.1108 53.873H65.1111Z" fill="#FFB8B8"/>
<path d="M82.6201 54.4267C82.406 54.7456 82.1246 55.0136 81.7958 55.2118C81.4669 55.4101 81.0987 55.5338 80.717 55.5742C80.3352 55.6146 79.9493 55.5707 79.5863 55.4457C79.2233 55.3206 78.8922 55.1174 78.6162 54.8504L64.2754 58.7566L64.4003 54.6892L78.6656 50.9807C79.1445 50.5463 79.766 50.3027 80.4123 50.2963C81.0586 50.2898 81.6848 50.5209 82.1722 50.9458C82.6597 51.3706 82.9745 51.9597 83.057 52.6013C83.1395 53.243 82.984 53.8926 82.6199 54.4271L82.6201 54.4267Z" fill="#FFB8B8"/>
<path d="M88.1926 37.6034L90.9885 37.428C90.9885 37.428 94.2622 41.7515 92.4464 46.4432C92.4464 46.4432 92.761 63.2969 85.5106 62.6044C78.2603 61.9119 75.9692 61.9122 75.9692 61.9122L78.1456 55.8357L83.0143 54.331C83.0143 54.331 81.5138 47.7055 84.3542 44.9489L88.1926 37.6034Z" fill="#E6E6E6"/>
<path d="M68.0029 37.4556L67.6077 35.4279C67.6077 35.4279 61.7798 35.2903 60.6275 44.1301C60.6275 44.1301 55.3867 57.359 60.5235 59.0625C65.6602 60.766 71.3109 59.0625 71.3109 59.0625L70.8854 53.2281L65.2339 52.074C65.2339 52.074 68.1536 48.2931 66.5637 45.0134L68.0029 37.4556Z" fill="#E6E6E6"/>
<path d="M79.9323 26.7379C79.3933 26.5262 78.7963 26.5372 78.2266 26.4327C76.1892 26.0569 74.6179 23.9776 74.8114 21.9132C74.86 21.6457 74.8645 21.372 74.8246 21.1031C74.6835 20.514 74.0293 20.1978 73.4284 20.1273C72.8275 20.0567 72.2066 20.147 71.622 19.9904C70.7195 19.7485 70.0452 18.9245 69.8167 18.0177C69.622 17.0956 69.7236 16.1354 70.1069 15.2745L70.3874 15.8597C70.679 15.5499 70.878 15.1644 70.9615 14.747C71.2065 14.7602 71.4439 14.8361 71.6511 14.9675C71.8584 15.0989 72.0284 15.2813 72.145 15.4974C72.5072 15.6593 72.463 14.831 72.824 14.6671C72.9866 14.6278 73.158 14.6502 73.3052 14.7298C74.1007 14.9969 74.9445 14.5961 75.7329 14.3088C77.0984 13.8129 78.5613 13.6456 80.0034 13.8204C80.9616 13.9374 81.9289 14.2209 82.6746 14.8338C83.2638 15.3681 83.7429 16.0126 84.0848 16.731C85.0051 18.4527 85.6983 20.352 85.6794 22.3052C85.6607 23.904 85.1693 25.4614 84.2672 26.781C83.7972 27.4657 82.2788 29.8406 81.2697 29.5792C80.002 29.2515 81.4499 27.3337 79.9323 26.7379Z" fill="#3F3D56"/>
</svg>
