<svg width="107" height="128" viewBox="0 0 107 128" fill="none" xmlns="http://www.w3.org/2000/svg">
<path d="M102.729 59.8326H63.7476C62.6675 59.8313 61.6321 59.4018 60.8683 58.6383C60.1046 57.8747 59.675 56.8395 59.6738 55.7596V4.89462C59.6751 3.8148 60.1047 2.77957 60.8684 2.01602C61.6321 1.25248 62.6676 0.822994 63.7476 0.821777H102.729C103.809 0.822995 104.845 1.25248 105.609 2.01602C106.372 2.77957 106.802 3.8148 106.803 4.89462V55.7596C106.802 56.8395 106.372 57.8747 105.609 58.6383C104.845 59.4018 103.809 59.8313 102.729 59.8326Z" fill="#E6E6E6"/>
<path d="M102.729 60.0291H63.7475C62.6153 60.0278 61.5298 59.5775 60.7292 58.7771C59.9287 57.9767 59.4783 56.8914 59.4771 55.7595V4.89454C59.4783 3.76259 59.9287 2.67736 60.7293 1.87695C61.5299 1.07654 62.6153 0.626295 63.7475 0.625H102.729C103.862 0.626275 104.947 1.07651 105.748 1.87692C106.548 2.67734 106.999 3.76257 107 4.89454V55.7595C106.999 56.8914 106.548 57.9767 105.748 58.7771C104.947 59.5776 103.862 60.0278 102.729 60.0291ZM63.7475 1.01841C62.7196 1.01956 61.7342 1.42831 61.0074 2.15498C60.2805 2.88164 59.8717 3.86688 59.8705 4.89454V55.7595C59.8717 56.7871 60.2805 57.7724 61.0073 58.4991C61.7342 59.2257 62.7196 59.6345 63.7475 59.6357H102.729C103.757 59.6345 104.743 59.2258 105.47 58.4991C106.196 57.7724 106.605 56.7871 106.606 55.7595V4.89454C106.605 3.86687 106.196 2.88162 105.47 2.15495C104.743 1.42828 103.757 1.01954 102.729 1.01841H63.7475Z" fill="#794DFF"/>
<path d="M76.4356 87.0348H1.67234C1.22896 87.0343 0.803893 86.858 0.49038 86.5445C0.176867 86.2311 0.000511342 85.8061 0 85.3628V17.6971C0.000494712 17.2538 0.176846 16.8289 0.490362 16.5154C0.803879 16.202 1.22896 16.0256 1.67234 16.0251H76.4356C76.8789 16.0256 77.304 16.202 77.6175 16.5154C77.9311 16.8288 78.1074 17.2538 78.1079 17.6971V85.3628C78.1074 85.8061 77.931 86.2311 77.6175 86.5445C77.304 86.858 76.8789 87.0343 76.4356 87.0348Z" fill="#3F3D56"/>
<path d="M74.8614 85.461H3.24607C2.80269 85.4605 2.37762 85.2842 2.06411 84.9708C1.7506 84.6573 1.57424 84.2323 1.57373 83.7891V19.2706C1.57423 18.8273 1.75058 18.4023 2.06409 18.0889C2.37761 17.7754 2.80269 17.5991 3.24607 17.5986H74.8614C75.3048 17.5991 75.7298 17.7754 76.0434 18.0889C76.3569 18.4023 76.5332 18.8273 76.5337 19.2706V83.7891C76.5332 84.2323 76.3568 84.6573 76.0433 84.9708C75.7298 85.2842 75.3047 85.4605 74.8614 85.461Z" fill="white"/>
<path d="M6.88509 24.608C15.3131 24.4615 23.7421 24.4405 32.1719 24.5449C40.6005 24.6499 49.0263 24.881 57.4493 25.2381C62.1758 25.4385 66.9004 25.6786 71.623 25.9583C72.0024 25.9808 72.0011 25.3906 71.623 25.3682C63.2084 24.8704 54.7877 24.4979 46.3608 24.2507C37.9351 24.0042 29.507 23.8838 21.0765 23.8893C16.3458 23.8925 11.6153 23.9354 6.88509 24.0179C6.5057 24.0245 6.5045 24.6147 6.88509 24.608Z" fill="#3F3D56"/>
<path d="M65.6204 20.9078L69.3058 20.6336C69.6822 20.6056 69.6853 20.0152 69.3058 20.0435L65.6204 20.3177C65.2439 20.3457 65.2409 20.936 65.6204 20.9078Z" fill="#3F3D56"/>
<path d="M65.6204 24.4483L69.3058 24.1741C69.6822 24.1461 69.6853 23.5557 69.3058 23.584L65.6204 23.8582C65.2439 23.8862 65.2409 24.4766 65.6204 24.4483Z" fill="#3F3D56"/>
<path d="M65.3428 22.8315L70.5825 23.3075C70.9607 23.3418 70.9583 22.7515 70.5825 22.7174L65.3428 22.2414C64.9646 22.2071 64.967 22.7974 65.3428 22.8315Z" fill="#3F3D56"/>
<path d="M9.06578 20.1143C8.8095 20.1127 8.55842 20.1866 8.34384 20.3267C8.12927 20.4668 7.96069 20.6669 7.85911 20.9022C7.74548 21.1324 7.71041 21.3935 7.75925 21.6456C7.80809 21.8977 7.93816 22.1268 8.12956 22.2979C8.3095 22.451 8.52531 22.5559 8.75683 22.603C8.98835 22.65 9.22801 22.6376 9.45342 22.5668C9.68394 22.4863 9.88384 22.3364 10.0256 22.1376C10.1674 21.9389 10.244 21.701 10.245 21.4569C10.2553 21.1861 10.1819 20.9186 10.0348 20.691C9.88771 20.4633 9.67406 20.2864 9.42289 20.1844C9.34742 20.1639 9.26691 20.1741 9.19891 20.2127C9.1309 20.2513 9.08092 20.3152 9.05986 20.3905C9.04125 20.4659 9.05224 20.5455 9.09058 20.6131C9.12893 20.6806 9.1917 20.7308 9.26598 20.7535C9.31741 20.7733 9.219 20.7282 9.26702 20.7544C9.28676 20.7651 9.30688 20.7748 9.32627 20.7863C9.34276 20.7961 9.35854 20.8068 9.37457 20.8172C9.42966 20.8532 9.34768 20.7908 9.38289 20.8231C9.41343 20.8512 9.44369 20.8785 9.47144 20.9094C9.48193 20.9211 9.52305 20.9536 9.4911 20.9309C9.46665 20.9135 9.48167 20.9176 9.4911 20.9316C9.49825 20.9422 9.50581 20.9525 9.51287 20.9631C9.53588 20.998 9.55679 21.0341 9.5755 21.0714C9.57985 21.08 9.58381 21.0889 9.58822 21.0974C9.59648 21.1135 9.60847 21.1178 9.58904 21.0976C9.57047 21.0783 9.58229 21.0797 9.58893 21.0982C9.5933 21.1104 9.59806 21.1224 9.60231 21.1346C9.61615 21.1744 9.62777 21.215 9.6371 21.256C9.64143 21.275 9.64491 21.2941 9.64863 21.3133C9.66181 21.381 9.64671 21.2711 9.6499 21.3215C9.65255 21.3635 9.65565 21.4051 9.65492 21.4473C9.65459 21.4666 9.65375 21.4858 9.65241 21.5051C9.65173 21.5147 9.65065 21.5243 9.65002 21.5339C9.64696 21.5802 9.64686 21.517 9.65334 21.5126C9.63985 21.552 9.6309 21.5927 9.62667 21.634C9.62139 21.6524 9.61511 21.6703 9.60923 21.6884C9.5887 21.7517 9.62851 21.6539 9.60662 21.6972C9.58861 21.7344 9.56848 21.7705 9.54633 21.8053C9.53671 21.8199 9.50045 21.8529 9.5301 21.83C9.56228 21.8051 9.51324 21.8479 9.50277 21.859C9.48933 21.8732 9.47538 21.8868 9.46092 21.9C9.45166 21.9091 9.44189 21.9176 9.43165 21.9255C9.42977 21.9245 9.48095 21.8913 9.45337 21.9089C9.4183 21.9312 9.3851 21.9551 9.34814 21.9746C9.34384 21.9769 9.29659 21.9988 9.29679 21.9995C9.29475 21.9916 9.35752 21.9774 9.31443 21.9914C9.30538 21.9943 9.29651 21.9978 9.28748 22.0009C9.24825 22.0141 9.2082 22.0247 9.1676 22.0328C9.1583 22.0346 9.14847 22.0356 9.13931 22.0379C9.10881 22.0458 9.16847 22.0333 9.17026 22.0344C9.14771 22.0334 9.12513 22.0354 9.1031 22.0403C9.06123 22.0427 9.01925 22.0427 8.97738 22.0403C8.96769 22.0397 8.95802 22.0388 8.94834 22.0382C8.92585 22.0369 8.90935 22.0207 8.93927 22.0383C8.96236 22.0518 8.96044 22.0419 8.93999 22.0382C8.93042 22.0364 8.92081 22.0349 8.91125 22.0331C8.8698 22.0254 8.82882 22.0153 8.78848 22.0031C8.76677 21.9964 8.7455 21.9887 8.72409 21.9813C8.71476 21.9786 8.70568 21.9751 8.69694 21.9708C8.69681 21.9684 8.75213 21.9972 8.72292 21.9815C8.68606 21.9616 8.64794 21.945 8.61194 21.9233C8.59273 21.9117 8.57428 21.8991 8.5556 21.8867C8.54739 21.8818 8.53958 21.8762 8.53225 21.87C8.53286 21.8675 8.578 21.9093 8.55431 21.8867C8.52434 21.8582 8.49229 21.8326 8.46391 21.8022C8.45742 21.7953 8.45128 21.788 8.44481 21.781L8.43855 21.7739C8.42255 21.7543 8.42225 21.7544 8.43766 21.7741C8.4533 21.7787 8.45258 21.7959 8.43774 21.7736C8.43246 21.7657 8.42683 21.758 8.42156 21.75C8.39759 21.7159 8.37715 21.6794 8.36055 21.6411C8.36199 21.64 8.38612 21.7121 8.36767 21.6577C8.36419 21.6474 8.36026 21.6373 8.35685 21.627C8.35007 21.6065 8.3441 21.5859 8.33894 21.565C8.33383 21.5443 8.33122 21.5229 8.32607 21.5023C8.3174 21.4675 8.33114 21.5297 8.32957 21.5282C8.32465 21.5233 8.32675 21.4932 8.32638 21.486C8.32402 21.4397 8.32929 21.3947 8.33012 21.3487C8.33076 21.313 8.32716 21.3765 8.32642 21.3746C8.3266 21.3639 8.32849 21.3534 8.33202 21.3433C8.33737 21.319 8.34234 21.2948 8.34888 21.2708C8.35637 21.2433 8.36499 21.2161 8.37474 21.1893C8.37839 21.1793 8.38283 21.1694 8.38622 21.1593C8.39864 21.1222 8.36163 21.204 8.38203 21.1706C8.41011 21.1247 8.43102 21.0749 8.46083 21.0295C8.4679 21.0188 8.51085 20.9588 8.48805 20.9891C8.46535 21.0192 8.51138 20.9621 8.52009 20.9524C8.5563 20.9121 8.59887 20.879 8.63635 20.8404C8.65853 20.8176 8.62086 20.8517 8.61864 20.8533C8.63025 20.845 8.64161 20.8364 8.65336 20.8283C8.67385 20.8141 8.69484 20.8008 8.71634 20.7882C8.74055 20.774 8.76793 20.7635 8.79139 20.7484C8.81912 20.7307 8.77019 20.7562 8.76932 20.7568C8.78198 20.7505 8.79522 20.7454 8.80885 20.7417C8.8317 20.7336 8.93109 20.6907 8.95194 20.7041C8.951 20.7035 8.87647 20.7101 8.93672 20.7063C8.95095 20.7053 8.96513 20.704 8.97939 20.7034C9.00823 20.7022 9.03697 20.7029 9.06578 20.7044C9.14389 20.7039 9.21866 20.6726 9.27389 20.6174C9.32913 20.5622 9.36039 20.4874 9.3609 20.4093C9.35923 20.3316 9.3276 20.2575 9.27261 20.2025C9.21762 20.1476 9.14353 20.116 9.06578 20.1143Z" fill="#3F3D56"/>
<path d="M13.1976 20.1143C12.9413 20.1127 12.6903 20.1866 12.4757 20.3267C12.2611 20.4668 12.0925 20.6669 11.9909 20.9022C11.8773 21.1324 11.8422 21.3935 11.8911 21.6456C11.9399 21.8977 12.07 22.1268 12.2614 22.2979C12.4413 22.451 12.6571 22.5559 12.8887 22.603C13.1202 22.65 13.3598 22.6376 13.5853 22.5668C13.8158 22.4863 14.0157 22.3364 14.1574 22.1376C14.2992 21.9389 14.3758 21.701 14.3768 21.4569C14.3871 21.1861 14.3137 20.9186 14.1666 20.691C14.0196 20.4633 13.8059 20.2864 13.5547 20.1844C13.4793 20.1639 13.3987 20.1741 13.3307 20.2127C13.2627 20.2513 13.2128 20.3152 13.1917 20.3905C13.1731 20.4659 13.1841 20.5455 13.2224 20.6131C13.2608 20.6806 13.3235 20.7308 13.3978 20.7535C13.4492 20.7733 13.3508 20.7282 13.3989 20.7544C13.4186 20.7651 13.4387 20.7748 13.4581 20.7863C13.4746 20.7961 13.4904 20.8068 13.5064 20.8172C13.5615 20.8532 13.4795 20.7908 13.5147 20.8231C13.5453 20.8512 13.5755 20.8785 13.6033 20.9094C13.6138 20.9211 13.6549 20.9536 13.6229 20.9309C13.5985 20.9135 13.6135 20.9176 13.6229 20.9316C13.6301 20.9422 13.6376 20.9525 13.6447 20.9631C13.6677 20.998 13.6886 21.0341 13.7073 21.0714C13.7117 21.08 13.7156 21.0889 13.7201 21.0974C13.7283 21.1135 13.7403 21.1178 13.7209 21.0976C13.7023 21.0783 13.7141 21.0797 13.7208 21.0982C13.7251 21.1104 13.7299 21.1224 13.7341 21.1346C13.748 21.1744 13.7596 21.215 13.7689 21.256C13.7733 21.275 13.7767 21.2941 13.7805 21.3133C13.7936 21.381 13.7785 21.2711 13.7817 21.3215C13.7844 21.3635 13.7875 21.4051 13.7868 21.4473C13.7864 21.4666 13.7856 21.4858 13.7842 21.5051C13.7836 21.5147 13.7825 21.5243 13.7819 21.5339C13.7788 21.5802 13.7787 21.517 13.7852 21.5126C13.7717 21.552 13.7627 21.5927 13.7585 21.634C13.7532 21.6524 13.7469 21.6703 13.7411 21.6884C13.7205 21.7517 13.7603 21.6539 13.7385 21.6972C13.7204 21.7344 13.7003 21.7705 13.6782 21.8053C13.6685 21.8199 13.6323 21.8529 13.6619 21.83C13.6941 21.8051 13.6451 21.8479 13.6346 21.859C13.6212 21.8732 13.6072 21.8868 13.5928 21.9C13.5835 21.9091 13.5737 21.9176 13.5635 21.9255C13.5616 21.9245 13.6128 21.8913 13.5852 21.9089C13.5501 21.9312 13.5169 21.9551 13.48 21.9746C13.4757 21.9769 13.4284 21.9988 13.4286 21.9995C13.4266 21.9916 13.4894 21.9774 13.4463 21.9914C13.4372 21.9943 13.4283 21.9978 13.4193 22.0009C13.3801 22.0141 13.34 22.0247 13.2994 22.0328C13.2901 22.0346 13.2803 22.0356 13.2711 22.0379C13.2406 22.0458 13.3003 22.0333 13.3021 22.0344C13.2795 22.0334 13.257 22.0354 13.2349 22.0403C13.1931 22.0427 13.1511 22.0427 13.1092 22.0403C13.0995 22.0397 13.0899 22.0388 13.0802 22.0382C13.0577 22.0369 13.0412 22.0207 13.0711 22.0383C13.0942 22.0518 13.0923 22.0419 13.0718 22.0382C13.0623 22.0364 13.0526 22.0349 13.0431 22.0331C13.0016 22.0254 12.9607 22.0153 12.9203 22.0031C12.8986 21.9964 12.8773 21.9887 12.8559 21.9813C12.8466 21.9786 12.8375 21.9751 12.8288 21.9708C12.8286 21.9684 12.884 21.9972 12.8548 21.9815C12.8179 21.9616 12.7798 21.945 12.7438 21.9233C12.7246 21.9117 12.7061 21.8991 12.6874 21.8867C12.6792 21.8818 12.6714 21.8762 12.6641 21.87C12.6647 21.8675 12.7098 21.9093 12.6861 21.8867C12.6562 21.8582 12.6241 21.8326 12.5957 21.8022C12.5893 21.7953 12.5831 21.788 12.5766 21.781L12.5704 21.7739C12.5544 21.7543 12.5541 21.7544 12.5695 21.7741C12.5851 21.7787 12.5844 21.7959 12.5696 21.7736C12.5643 21.7657 12.5587 21.758 12.5534 21.75C12.5294 21.7159 12.509 21.6794 12.4924 21.6411C12.4938 21.64 12.518 21.7121 12.4995 21.6577C12.496 21.6474 12.4921 21.6373 12.4887 21.627C12.4819 21.6065 12.4759 21.5859 12.4708 21.565C12.4657 21.5443 12.4631 21.5229 12.4579 21.5023C12.4492 21.4675 12.463 21.5297 12.4614 21.5282C12.4565 21.5233 12.4586 21.4932 12.4582 21.486C12.4559 21.4397 12.4611 21.3947 12.462 21.3487C12.4626 21.313 12.459 21.3765 12.4583 21.3746C12.4584 21.3639 12.4603 21.3534 12.4639 21.3433C12.4692 21.319 12.4742 21.2948 12.4807 21.2708C12.4882 21.2433 12.4968 21.2161 12.5066 21.1893C12.5102 21.1793 12.5147 21.1694 12.5181 21.1593C12.5305 21.1222 12.4935 21.204 12.5139 21.1706C12.5419 21.1247 12.5629 21.0749 12.5927 21.0295C12.5997 21.0188 12.6427 20.9588 12.6199 20.9891C12.5972 21.0192 12.6432 20.9621 12.6519 20.9524C12.6881 20.9121 12.7307 20.879 12.7682 20.8404C12.7904 20.8176 12.7527 20.8517 12.7505 20.8533C12.7621 20.845 12.7734 20.8364 12.7852 20.8283C12.8057 20.8141 12.8267 20.8008 12.8482 20.7882C12.8724 20.774 12.8998 20.7635 12.9232 20.7484C12.951 20.7307 12.902 20.7562 12.9012 20.7568C12.9138 20.7505 12.9271 20.7454 12.9407 20.7417C12.9635 20.7336 13.0629 20.6907 13.0838 20.7041C13.0828 20.7035 13.0083 20.7101 13.0686 20.7063C13.0828 20.7053 13.097 20.704 13.1112 20.7034C13.1401 20.7022 13.1688 20.7029 13.1976 20.7044C13.2757 20.7039 13.3505 20.6726 13.4057 20.6174C13.461 20.5622 13.4922 20.4874 13.4927 20.4093C13.4911 20.3316 13.4594 20.2575 13.4044 20.2025C13.3495 20.1476 13.2754 20.116 13.1976 20.1143Z" fill="#3F3D56"/>
<path d="M17.3295 20.1143C17.0732 20.1127 16.8221 20.1866 16.6075 20.3267C16.3929 20.4668 16.2244 20.6669 16.1228 20.9022C16.0092 21.1324 15.9741 21.3935 16.0229 21.6456C16.0718 21.8977 16.2018 22.1268 16.3932 22.2979C16.5732 22.451 16.789 22.5559 17.0205 22.603C17.252 22.65 17.4917 22.6376 17.7171 22.5668C17.9476 22.4863 18.1475 22.3364 18.2893 22.1376C18.431 21.9389 18.5077 21.701 18.5087 21.4569C18.519 21.1861 18.4456 20.9186 18.2985 20.691C18.1514 20.4633 17.9377 20.2864 17.6866 20.1844C17.6111 20.1639 17.5306 20.1741 17.4626 20.2127C17.3946 20.2513 17.3446 20.3152 17.3235 20.3905C17.3049 20.4659 17.3159 20.5455 17.3543 20.6131C17.3926 20.6806 17.4554 20.7308 17.5296 20.7535C17.5811 20.7733 17.4827 20.7282 17.5307 20.7544C17.5504 20.7651 17.5706 20.7748 17.5899 20.7863C17.6064 20.7961 17.6222 20.8068 17.6382 20.8172C17.6933 20.8532 17.6113 20.7908 17.6466 20.8231C17.6771 20.8512 17.7074 20.8785 17.7351 20.9094C17.7456 20.9211 17.7867 20.9536 17.7548 20.9309C17.7303 20.9135 17.7453 20.9176 17.7548 20.9316C17.7619 20.9422 17.7695 20.9525 17.7765 20.9631C17.7995 20.998 17.8205 21.0341 17.8392 21.0714C17.8435 21.08 17.8475 21.0889 17.8519 21.0974C17.8601 21.1135 17.8721 21.1178 17.8527 21.0976C17.8341 21.0783 17.846 21.0797 17.8526 21.0982C17.857 21.1104 17.8617 21.1224 17.866 21.1346C17.8798 21.1744 17.8914 21.215 17.9008 21.256C17.9051 21.275 17.9086 21.2941 17.9123 21.3133C17.9255 21.381 17.9104 21.2711 17.9136 21.3215C17.9162 21.3635 17.9193 21.4051 17.9186 21.4473C17.9182 21.4666 17.9174 21.4858 17.9161 21.5051C17.9154 21.5147 17.9143 21.5243 17.9137 21.5339C17.9106 21.5802 17.9105 21.517 17.917 21.5126C17.9035 21.552 17.8946 21.5927 17.8903 21.634C17.885 21.6524 17.8788 21.6703 17.8729 21.6884C17.8524 21.7517 17.8922 21.6539 17.8703 21.6972C17.8523 21.7344 17.8321 21.7705 17.81 21.8053C17.8004 21.8199 17.7641 21.8529 17.7938 21.83C17.8259 21.8051 17.7769 21.8479 17.7664 21.859C17.753 21.8732 17.739 21.8868 17.7246 21.9C17.7153 21.9091 17.7055 21.9176 17.6953 21.9255C17.6934 21.9245 17.7446 21.8913 17.717 21.9089C17.682 21.9312 17.6488 21.9551 17.6118 21.9746C17.6075 21.9769 17.5603 21.9988 17.5605 21.9995C17.5584 21.9916 17.6212 21.9774 17.5781 21.9914C17.569 21.9943 17.5602 21.9978 17.5511 22.0009C17.5119 22.0141 17.4719 22.0247 17.4313 22.0328C17.422 22.0346 17.4121 22.0356 17.403 22.0379C17.3725 22.0458 17.4321 22.0333 17.4339 22.0344C17.4114 22.0334 17.3888 22.0354 17.3668 22.0403C17.3249 22.0427 17.2829 22.0427 17.241 22.0403C17.2314 22.0397 17.2217 22.0388 17.212 22.0382C17.1895 22.0369 17.173 22.0207 17.2029 22.0383C17.226 22.0518 17.2241 22.0419 17.2037 22.0382C17.1941 22.0364 17.1845 22.0349 17.1749 22.0331C17.1335 22.0254 17.0925 22.0153 17.0521 22.0031C17.0304 21.9964 17.0092 21.9887 16.9878 21.9813C16.9784 21.9786 16.9693 21.9751 16.9606 21.9708C16.9605 21.9684 17.0158 21.9972 16.9866 21.9815C16.9497 21.9616 16.9116 21.945 16.8756 21.9233C16.8564 21.9117 16.8379 21.8991 16.8193 21.8867C16.811 21.8818 16.8032 21.8762 16.7959 21.87C16.7965 21.8675 16.8417 21.9093 16.818 21.8867C16.788 21.8582 16.756 21.8326 16.7276 21.8022C16.7211 21.7953 16.7149 21.788 16.7085 21.781L16.7022 21.7739C16.6862 21.7543 16.6859 21.7544 16.7013 21.7741C16.717 21.7787 16.7162 21.7959 16.7014 21.7736C16.6961 21.7657 16.6905 21.758 16.6852 21.75C16.6613 21.7159 16.6408 21.6794 16.6242 21.6411C16.6257 21.64 16.6498 21.7121 16.6313 21.6577C16.6278 21.6474 16.6239 21.6373 16.6205 21.627C16.6137 21.6065 16.6078 21.5859 16.6026 21.565C16.5975 21.5443 16.5949 21.5229 16.5897 21.5023C16.5811 21.4675 16.5948 21.5297 16.5932 21.5282C16.5883 21.5233 16.5904 21.4932 16.59 21.486C16.5877 21.4397 16.593 21.3947 16.5938 21.3487C16.5944 21.313 16.5908 21.3765 16.5901 21.3746C16.5903 21.3639 16.5922 21.3534 16.5957 21.3433C16.601 21.319 16.606 21.2948 16.6126 21.2708C16.62 21.2433 16.6287 21.2161 16.6384 21.1893C16.6421 21.1793 16.6465 21.1694 16.6499 21.1593C16.6623 21.1222 16.6253 21.204 16.6457 21.1706C16.6738 21.1247 16.6947 21.0749 16.7245 21.0295C16.7316 21.0188 16.7745 20.9588 16.7517 20.9891C16.729 21.0192 16.7751 20.9621 16.7838 20.9524C16.82 20.9121 16.8625 20.879 16.9 20.8404C16.9222 20.8176 16.8845 20.8517 16.8823 20.8533C16.8939 20.845 16.9053 20.8364 16.917 20.8283C16.9375 20.8141 16.9585 20.8008 16.98 20.7882C17.0042 20.774 17.0316 20.7635 17.0551 20.7484C17.0828 20.7307 17.0339 20.7562 17.033 20.7568C17.0456 20.7505 17.0589 20.7454 17.0725 20.7417C17.0954 20.7336 17.1948 20.6907 17.2156 20.7041C17.2147 20.7035 17.1401 20.7101 17.2004 20.7063C17.2146 20.7053 17.2288 20.704 17.2431 20.7034C17.2719 20.7022 17.3006 20.7029 17.3295 20.7044C17.4076 20.7039 17.4823 20.6726 17.5376 20.6174C17.5928 20.5622 17.6241 20.4874 17.6246 20.4093C17.6229 20.3316 17.5913 20.2575 17.5363 20.2025C17.4813 20.1476 17.4072 20.116 17.3295 20.1143Z" fill="#3F3D56"/>
<path d="M8.70619 35.6108L8.96938 45.6829L9.23257 55.755C9.26578 57.0259 9.08621 58.7594 10.3756 59.5038C10.9135 59.8143 11.5566 59.8824 12.1661 59.8994C12.9754 59.9218 13.7872 59.9052 14.5967 59.906L24.6799 59.9168C26.0047 59.9182 27.4598 59.8796 28.409 58.8128C29.2013 57.9222 29.4258 56.6878 29.5053 55.5358C29.6101 54.0155 29.5598 52.4763 29.5734 50.953L29.6187 45.8911L29.664 40.8292C29.6777 39.2914 29.7504 37.7412 29.683 36.2044C29.6315 35.0318 29.4332 33.7797 28.6469 32.8582C27.7512 31.8085 26.3348 31.6668 25.043 31.6255C21.7021 31.5185 18.3605 31.4283 15.0193 31.3298C14.2506 31.3071 13.4797 31.2658 12.7106 31.276C12.0266 31.2628 11.3454 31.3671 10.6967 31.5844C9.61646 31.9888 8.77259 32.9587 8.81015 34.1617C8.81259 34.4137 8.86822 34.6623 8.9734 34.8913C9.07859 35.1203 9.23095 35.3245 9.42053 35.4906C9.70886 35.7344 10.1284 35.319 9.83789 35.0733C9.05046 34.4073 9.43181 33.1594 10.1201 32.5683C11.1175 31.7119 12.681 31.8509 13.8971 31.8868L23.3622 32.1659C24.0962 32.1875 24.8323 32.1948 25.5654 32.2379C26.2199 32.2765 26.9036 32.3615 27.4893 32.6766C28.5023 33.2214 28.8976 34.3395 29.0307 35.4207C29.1982 36.7812 29.0974 38.1849 29.0851 39.5515L29.0421 44.3676L28.9568 53.9016C28.9464 55.0613 28.9643 56.2582 28.5741 57.3669C28.4064 57.8813 28.0992 58.3391 27.6868 58.6893C27.1689 59.0651 26.5501 59.2767 25.9105 59.2966C25.1921 59.3545 24.4654 59.3265 23.7453 59.3257L21.286 59.3231L16.5641 59.318L14.1048 59.3154C13.3862 59.3146 12.6624 59.3398 11.9446 59.3004C11.3938 59.27 10.7791 59.1748 10.3732 58.7652C9.91859 58.3063 9.8764 57.5976 9.85553 56.989C9.63821 50.6514 9.52369 44.3084 9.35804 37.9692L9.29641 35.6108C9.28651 35.2318 8.69625 35.2303 8.70619 35.6108Z" fill="#3F3D56"/>
<path d="M46.088 35.6108L46.3512 45.6829L46.6144 55.755C46.6476 57.0259 46.468 58.7594 47.7574 59.5038C48.2953 59.8143 48.9384 59.8824 49.548 59.8994C50.3572 59.9218 51.169 59.9052 51.9785 59.906L62.0617 59.9168C63.3865 59.9182 64.8417 59.8796 65.7908 58.8128C66.5832 57.9222 66.8077 56.6878 66.8871 55.5358C66.9919 54.0155 66.9416 52.4763 66.9553 50.953L67.0005 45.8911L67.0458 40.8292C67.0595 39.2914 67.1322 37.7412 67.0648 36.2044C67.0134 35.0318 66.8151 33.7797 66.0288 32.8582C65.133 31.8085 63.7167 31.6668 62.4248 31.6255C59.0839 31.5185 55.7423 31.4283 52.4011 31.3298C51.6324 31.3071 50.8615 31.2658 50.0924 31.276C49.4084 31.2628 48.7272 31.3671 48.0786 31.5844C46.9983 31.9888 46.1544 32.9587 46.192 34.1617C46.1944 34.4137 46.25 34.6623 46.3552 34.8913C46.4604 35.1203 46.6128 35.3245 46.8024 35.4906C47.0907 35.7344 47.5102 35.319 47.2197 35.0733C46.4323 34.4073 46.8136 33.1594 47.502 32.5683C48.4993 31.7119 50.0628 31.8509 51.2789 31.8868L60.744 32.1659C61.478 32.1875 62.2141 32.1948 62.9473 32.2379C63.6017 32.2765 64.2854 32.3615 64.8712 32.6766C65.8841 33.2214 66.2795 34.3395 66.4125 35.4207C66.58 36.7812 66.4792 38.1849 66.467 39.5515L66.4239 44.3676L66.3386 53.9016C66.3283 55.0613 66.3462 56.2582 65.9559 57.3669C65.7882 57.8813 65.4811 58.3391 65.0687 58.6893C64.5508 59.0651 63.9319 59.2767 63.2923 59.2966C62.5739 59.3545 61.8472 59.3265 61.1272 59.3257L58.6679 59.3231L53.946 59.318L51.4866 59.3154C50.768 59.3146 50.0442 59.3398 49.3265 59.3004C48.7756 59.27 48.1609 59.1748 47.7551 58.7652C47.3004 58.3063 47.2582 57.5976 47.2374 56.989C47.02 50.6514 46.9055 44.3084 46.7399 37.9692L46.6783 35.6108C46.6683 35.2318 46.0781 35.2303 46.088 35.6108Z" fill="#3F3D56"/>
<path d="M18.8945 62.0974C18.6882 61.8988 18.4343 61.7567 18.1571 61.6846C17.88 61.6125 17.5889 61.6129 17.312 61.6858C17.0368 61.7613 16.7818 61.8968 16.5653 62.0826C16.3488 62.2684 16.1762 62.4999 16.06 62.7605C15.5023 63.9478 16.0019 65.3318 16.7724 66.3014C17.4884 67.2023 18.6516 67.796 19.7847 67.3231C20.301 67.1019 20.7348 66.7242 21.0249 66.2434C21.315 65.7625 21.4467 65.2027 21.4016 64.643C21.2587 63.3246 20.1871 62.2569 18.9288 61.9349C18.5606 61.8407 18.4036 62.4097 18.7719 62.5039C19.2093 62.6098 19.6142 62.821 19.9514 63.1191C20.2886 63.4171 20.5479 63.793 20.7067 64.214C20.846 64.626 20.852 65.0713 20.7239 65.4868C20.5958 65.9023 20.34 66.267 19.9929 66.529C18.2341 67.8792 16.2223 65.2975 16.4195 63.6083C16.4406 63.3591 16.5187 63.118 16.6478 62.9038C16.777 62.6896 16.9536 62.5079 17.1642 62.3729C17.3692 62.2523 17.6077 62.2009 17.8442 62.2264C18.0807 62.252 18.3027 62.353 18.4772 62.5146C18.5331 62.5669 18.6072 62.5954 18.6838 62.5941C18.7604 62.5928 18.8334 62.5618 18.8876 62.5077C18.9417 62.4536 18.9727 62.3805 18.974 62.3039C18.9753 62.2274 18.9468 62.1533 18.8945 62.0974Z" fill="#3F3D56"/>
<path d="M54.9535 41.6176C54.2647 41.3808 53.4651 41.1456 52.7524 41.4232C52.0801 41.6851 51.7098 42.3264 51.6369 43.0224C51.5557 43.7985 51.8858 44.5388 52.2357 45.2107C52.6565 46.019 53.0905 46.8207 53.5182 47.6254L54.9976 50.4087C55.0312 50.4632 55.0816 50.5053 55.1412 50.5288C55.2007 50.5523 55.2662 50.556 55.328 50.5392C55.3898 50.5225 55.4446 50.4863 55.4841 50.4359C55.5237 50.3856 55.5459 50.3238 55.5475 50.2598C55.4639 49.3266 55.6121 48.3871 55.9788 47.5248C56.3571 46.6533 56.9753 45.9172 57.4148 45.0791C57.8193 44.3077 58.089 43.4226 57.8747 42.553C57.7014 41.8498 57.1898 41.1654 56.4526 41.0017C56.08 40.9075 55.6861 40.9492 55.3416 41.1193C54.9971 41.2895 54.7246 41.5769 54.5731 41.93C54.4338 42.2835 55.0044 42.4368 55.1422 42.0869C55.3386 41.5886 56.0258 41.4358 56.4838 41.6265C57.0806 41.875 57.3636 42.5881 57.3629 43.1942C57.362 44.0228 56.9374 44.78 56.5066 45.4606C56.0714 46.148 55.614 46.8128 55.3248 47.579C55.0058 48.4345 54.8802 49.35 54.9573 50.2598L55.5072 50.1109C54.5466 48.3036 53.5332 46.5145 52.6264 44.6797C52.2777 43.9741 51.9641 43.0224 52.4987 42.3186C53.0468 41.597 54.0929 41.9447 54.7966 42.1866C55.1565 42.3104 55.3111 41.7406 54.9535 41.6176Z" fill="#3F3D56"/>
<path d="M17.3877 63.7458L18.2568 65.4311C18.287 65.4801 18.3306 65.5193 18.3825 65.544C18.4344 65.5687 18.4924 65.5779 18.5494 65.5705C18.6064 65.563 18.66 65.5392 18.7038 65.502C18.7476 65.4648 18.7797 65.4157 18.7962 65.3606C19.0227 64.1939 19.5651 63.1118 20.3644 62.2321C20.6202 61.9522 20.2039 61.5337 19.9471 61.8149C19.075 62.7663 18.4801 63.9383 18.2271 65.2038L18.7665 65.1333L17.8974 63.4479C17.7233 63.1103 17.2138 63.4084 17.3877 63.7458Z" fill="#3F3D56"/>
<path d="M27.2458 55.9657L20.3787 62.0298C20.34 62.064 20.2896 62.082 20.238 62.0802C20.1864 62.0783 20.1375 62.0568 20.1013 62.0199C20.0651 61.9831 20.0444 61.9338 20.0435 61.8822C20.0426 61.8305 20.0615 61.7805 20.0964 61.7424L26.4948 54.7581L27.2458 55.9657Z" fill="#3F3D56"/>
<path d="M37.9194 123.464H40.5377L41.7838 113.367H37.9194V123.464Z" fill="#FFB8B8"/>
<path d="M36.5366 128H38.4143L38.7495 126.228L39.6079 128H44.588C44.8267 128 45.0592 127.924 45.2515 127.782C45.4438 127.641 45.5858 127.442 45.6568 127.214C45.7279 126.986 45.7242 126.741 45.6464 126.516C45.5685 126.29 45.4206 126.095 45.2241 125.96L41.2471 123.214V121.422L37.0641 121.671L36.5366 128Z" fill="#3F3D56"/>
<path d="M60.3467 123.464H62.9649L64.2111 113.367H60.3467V123.464Z" fill="#FFB8B8"/>
<path d="M58.9639 128H60.8416L61.1767 126.228L62.0351 128H67.0152C67.254 128 67.4864 127.924 67.6787 127.782C67.871 127.641 68.013 127.442 68.0841 127.214C68.1551 126.986 68.1515 126.741 68.0736 126.516C67.9958 126.29 67.8478 126.095 67.6514 125.96L63.6744 123.214V121.422L59.4913 121.671L58.9639 128Z" fill="#3F3D56"/>
<path d="M52.7791 69.9439L39.4998 68.4688C39.4998 68.4688 33.5978 76.1396 35.811 82.7778V90.1699L37.4341 119.067L41.4917 119.288L42.6721 106.159L43.7787 100.922L44.7108 80.9705L49.4593 86.687L49.9019 88.8998L51.3774 89.9324L54.1071 93.6824L59.7139 116.707L64.655 116.78C64.655 116.78 62.0009 92.8827 61.7058 92.8827C61.4107 92.8827 54.0333 76.8034 54.0333 76.8034V75.9526L53.7382 74.2957C53.7382 74.2957 54.4759 73.7056 54.1808 73.4106C53.8857 73.1155 53.5906 72.2304 53.5906 72.2304L52.7791 69.9439Z" fill="#3F3D56"/>
<path d="M47.9831 49.3655L50.6389 52.3159L54.3277 53.6435L52.262 65.7398L52.9471 69.2182L53.9588 73.0419C50.0606 75.1978 45.4302 72.2204 41.1762 70.8981L36.9907 72.7469L37.212 67.6576L37.3255 54.8348C37.3299 54.3423 37.4355 53.856 37.6357 53.406C37.8359 52.956 38.1265 52.5519 38.4894 52.2189C38.8523 51.8858 39.2798 51.6309 39.7454 51.47C40.211 51.309 40.7047 51.2455 41.1958 51.2832L43.9993 49.218L47.9831 49.3655Z" fill="#794DFF"/>
<path d="M23.8907 54.7766C23.9116 54.9955 23.9803 55.2071 24.0919 55.3966C24.2035 55.5861 24.3553 55.7488 24.5367 55.8732C24.718 55.9977 24.9244 56.0809 25.1413 56.117C25.3583 56.1531 25.5805 56.1412 25.7923 56.0821L28.8372 60.4754L29.8724 57.8979L26.8222 54.1211C26.6994 53.7719 26.4527 53.4798 26.1289 53.3003C25.805 53.1208 25.4266 53.0663 25.0652 53.1471C24.7039 53.2279 24.3847 53.4384 24.1682 53.7387C23.9518 54.0391 23.853 54.4084 23.8907 54.7766Z" fill="#FFB8B8"/>
<path d="M39.8335 51.346C39.8335 51.346 35.8703 51.1704 36.3141 59.045L34.628 62.5041L31.2369 59.34L31.2216 58.3328L28.3537 55.128L26.0518 57.6722L27.5841 60.0144L27.8794 61.3225L28.8127 61.8924L31.2476 65.6144L32.374 66.7228C32.374 66.7228 33.8029 68.1464 35.419 67.9319C35.8502 67.8759 36.2699 67.7525 36.6628 67.5662C37.4316 67.2003 38.1911 66.5443 38.8298 65.4337C40.1681 63.1402 41.3679 60.7686 42.4229 58.3317L39.8335 51.346Z" fill="#794DFF"/>
<path d="M57.1835 42.4559C57.123 42.6673 57.1096 42.8894 57.1443 43.1066C57.1789 43.3237 57.2607 43.5306 57.384 43.7127C57.5072 43.8948 57.6689 44.0477 57.8577 44.1605C58.0464 44.2734 58.2576 44.3435 58.4764 44.366L59.7046 49.5679L61.6104 47.547L60.1519 42.917C60.1653 42.547 60.0424 42.185 59.8066 41.8996C59.5708 41.6141 59.2385 41.4251 58.8726 41.3683C58.5067 41.3114 58.1326 41.3908 57.8213 41.5912C57.5101 41.7917 57.2831 42.0994 57.1835 42.4559Z" fill="#FFB8B8"/>
<path d="M48.749 52.9421C48.749 52.9421 50.8446 49.5744 57.0907 54.3919L60.8978 54.957L60.2043 50.3716L59.3819 49.7896L58.359 45.6128L61.7595 45.1526L62.8257 47.7404L63.738 48.7234L63.6806 49.8152L65.375 53.9275L65.6527 55.483C65.6527 55.483 66.0195 57.4661 64.9289 58.6777C64.6389 59.0016 64.2998 59.278 63.924 59.4967C63.1875 59.9239 62.2169 60.1794 60.9396 60.0783C58.2907 59.8854 55.6557 59.5343 53.0488 59.0267L48.749 52.9421Z" fill="#794DFF"/>
<path d="M48.4529 48.1354C50.9297 46.7818 51.8399 43.6771 50.486 41.2009C49.1321 38.7247 46.0267 37.8146 43.55 39.1682C41.0732 40.5218 40.163 43.6265 41.5169 46.1027C42.8708 48.5789 45.9762 49.489 48.4529 48.1354Z" fill="#FFB8B8"/>
<path d="M52.7269 41.8887C52.7116 41.8945 52.6983 41.9002 52.683 41.9059C52.6539 41.9187 52.6239 41.9295 52.5933 41.9383C52.3982 42.0094 52.1949 42.0556 51.9883 42.0757C51.9002 42.085 51.8116 42.0895 51.723 42.0891C51.6094 42.0892 51.4958 42.0815 51.3833 42.0662C51.258 42.0505 51.1342 42.025 51.013 41.9899C50.9555 41.9743 50.8988 41.9558 50.8431 41.9345C50.4641 41.7988 50.1216 41.5771 49.8428 41.2867C49.5639 40.9963 49.3563 40.6452 49.2361 40.261V40.2591C49.2232 40.2216 49.2124 40.1833 49.2036 40.1446C49.1474 39.9297 49.1192 39.7084 49.1196 39.4863V39.4825C49.1196 38.9408 49.2898 38.4128 49.6063 37.9731C49.7972 37.704 50.017 37.6595 49.8945 37.351C49.5039 36.3669 51.1143 35.5672 52.0627 36.0019C52.097 35.9988 52.1314 35.9975 52.1658 35.9981C52.8052 35.9981 53.0399 36.9427 53.4197 37.4751L53.4087 37.4786C53.3121 37.5122 53.2284 37.5751 53.1693 37.6585C53.1102 37.7419 53.0786 37.8418 53.0791 37.944C53.0795 38.0463 53.1119 38.1458 53.1717 38.2288C53.2315 38.3117 53.3157 38.3739 53.4126 38.4066C53.6662 38.4899 53.9224 38.5636 54.1813 38.6276C55.0331 39.6386 54.0462 42.5875 52.7269 41.8887Z" fill="#3F3D56"/>
<path d="M52.2496 44.5928C51.9652 45.6671 51.4423 46.7147 50.5777 47.4112C49.7111 48.1077 45.6401 49.7526 45.3003 48.3348C45.5275 49.3251 45.3881 49.7029 45.0179 50.056C44.9549 49.9701 44.8881 49.888 44.8194 49.8079C44.5663 49.5149 44.2624 49.2699 43.9223 49.0847C43.912 49.6825 43.9535 50.2801 44.0464 50.8708C43.8938 51.0108 43.7486 51.1585 43.6112 51.3135C42.9585 49.3518 41.5227 47.0006 42.571 45.2187C42.987 44.5114 42.6419 44.4136 42.2752 44.3314C41.635 44.1878 41.2884 41.5587 41.1376 40.9195C40.9506 40.118 40.8781 39.1964 41.3762 38.54C41.8744 37.8835 43.1302 37.8587 43.3822 38.643L43.9128 37.9255C44.5999 36.4238 46.413 36.7291 48.0526 36.9275C49.6921 37.1241 51.1369 38.2804 51.8717 39.7593C52.6046 41.2382 52.6714 42.9956 52.2496 44.5928Z" fill="#3F3D56"/>
<path d="M49.6811 37.7183C49.644 38.6248 49.8742 39.5223 50.3431 40.2991C50.8119 41.0759 51.4988 41.6978 52.3183 42.0875C52.6512 42.2393 52.9425 41.7461 52.6073 41.5932C51.8751 41.2533 51.2604 40.7034 50.8413 40.0135C50.4223 39.3236 50.2177 38.5247 50.2537 37.7183C50.2737 37.3502 49.7011 37.3513 49.6811 37.7183Z" fill="#794DFF"/>
</svg>
